# xmcd
#
# Track frame offsets: 
#        150
#        11560
#        23787
#        36640
#        47925
#        59907
#        78075
#        90862
#        102925
#        117585
#        131835
#        145847
#        156275
#        171475
#        182350
#        196732
#        209155
#        223402
#
# Disc length: 3143 seconds
#
# Revision: 0
# Processed by: cddbd v1.5.2PL0 Copyright (c) Steve Scherf et al.
# Submitted via: ExactAudioCopy v0.95b2
#
DISCID=100c4512
DTITLE=Various Artist - Country Greats
DYEAR=1997
DGENRE=Country
TTITLE0=Donna Fargo - The Happiest Girl In The Whole USA
TTITLE1=Freddy Fender - Wasted Days And Wasted Nights
TTITLE2=Patsy Cline - I Fall To Pieces
TTITLE3=Sonny James - Young Love
TTITLE4=Loretta Lynn - One's On The Way
TTITLE5=Don Williams - I Believe In You
TTITLE6=Jody Miller - Home Of The Brave
TTITLE7=The Oakridge Boys - Elvira
TTITLE8=Jeanne Pruett - Satin Sheets
TTITLE9=Conway Twitty - You've Never Been This Far Before
TTITLE10=Crystal Gayle - River Road
TTITLE11=Ferlin Husky - Wings Of A Dove
TTITLE12=Jesse Colter - I'm Not Lisa
TTITLE13=Faron Young - Hello Walls
TTITLE14=The Bellamy Brothers - If I Said You Had A Beautiful Body
TTITLE15=Billie Jo Spears - What I've Got In Mind
TTITLE16=Glen Campbell - Rhinestone Cowboy
TTITLE17=Tommy Overstreet - Gwen (Congratulations)
EXTD=
EXTT0=
EXTT1=
EXTT2=
EXTT3=
EXTT4=
EXTT5=
EXTT6=
EXTT7=
EXTT8=
EXTT9=
EXTT10=
EXTT11=
EXTT12=
EXTT13=
EXTT14=
EXTT15=
EXTT16=
EXTT17=
PLAYORDER=
